<svg xmlns="http://www.w3.org/2000/svg" viewBox="0 0 64 23.24"><defs><style>.cls-1{fill:#f1f0f0;}.cls-2{opacity:0.8;}.cls-3{fill:#be6b35;}.cls-4{fill:#363638;}.cls-5,.cls-6{fill:#e0a770;}.cls-5{opacity:0.56;}</style></defs><title>login_part-01</title><g id="Capa_2" data-name="Capa 2"><path class="cls-1" d="M0,32.61H23s-.89-3,.61-4,1.73-.66,1.73-.66l13.49.13,1.17.79.6,1.39V32.4l.89.21H64V0H0Z"/></g><g id="Capa_1" data-name="Capa 1"><g class="cls-2"><path class="cls-3" d="M8,5.4l-.05.11a1.87,1.87,0,0,1-1.78,1A1.94,1.94,0,0,1,4.78,6,1.8,1.8,0,0,1,4.2,4.67a1.79,1.79,0,0,1,.57-1.36A2,2,0,0,1,7.22,3a1.71,1.71,0,0,1,.68.74L8,3.93H7.42a1.45,1.45,0,0,0-2.27-.32,1.37,1.37,0,0,0-.47,1,1.38,1.38,0,0,0,.44,1,1.4,1.4,0,0,0,1,.42A1.43,1.43,0,0,0,7.42,5.4Z"/><path class="cls-3" d="M11.79,4.65V6.48h-.49V5.91A1.82,1.82,0,0,1,8.57,6,1.86,1.86,0,0,1,8,4.65a1.88,1.88,0,0,1,.57-1.37A1.75,1.75,0,0,1,10,2.74a1.83,1.83,0,0,1,1.3.59A1.75,1.75,0,0,1,11.79,4.65Zm-.49,0a1.42,1.42,0,0,0-.41-1,1.28,1.28,0,0,0-1-.41,1.35,1.35,0,0,0-1,.41,1.38,1.38,0,0,0-.42,1,1.4,1.4,0,0,0,.38,1,1.33,1.33,0,0,0,1,.46,1.29,1.29,0,0,0,1-.42A1.43,1.43,0,0,0,11.31,4.61Z"/><path class="cls-3" d="M8,9.58l-.05.11a1.87,1.87,0,0,1-1.78,1,1.94,1.94,0,0,1-1.37-.56,1.87,1.87,0,0,1,0-2.7A2,2,0,0,1,7.22,7.2a1.71,1.71,0,0,1,.68.74L8,8.1H7.42a1.45,1.45,0,0,0-2.27-.32,1.37,1.37,0,0,0-.47,1,1.38,1.38,0,0,0,.44,1,1.4,1.4,0,0,0,1,.42,1.43,1.43,0,0,0,1.28-.68Z"/><path class="cls-3" d="M11.79,8.82v1.83h-.49v-.57a1.82,1.82,0,0,1-2.73.07A1.86,1.86,0,0,1,8,8.83a1.88,1.88,0,0,1,.57-1.37A1.75,1.75,0,0,1,10,6.91a1.83,1.83,0,0,1,1.3.59A1.75,1.75,0,0,1,11.79,8.82Zm-.49,0a1.42,1.42,0,0,0-.41-1,1.28,1.28,0,0,0-1-.41,1.35,1.35,0,0,0-1,.41,1.38,1.38,0,0,0-.42,1,1.4,1.4,0,0,0,.38,1,1.33,1.33,0,0,0,1,.46,1.29,1.29,0,0,0,1-.42A1.43,1.43,0,0,0,11.31,8.79Z"/><path class="cls-3" d="M7.94,13a1.86,1.86,0,0,1-.57,1.36,1.84,1.84,0,0,1-2.65,0,1.93,1.93,0,0,1,0-2.7,1.76,1.76,0,0,1,1.36-.55,1.8,1.8,0,0,1,1.29.59A1.86,1.86,0,0,1,7.94,13Zm-.49,0A1.45,1.45,0,0,0,7,12a1.27,1.27,0,0,0-1-.41,1.33,1.33,0,0,0-1,.41,1.39,1.39,0,0,0-.42,1,1.41,1.41,0,0,0,.38,1,1.3,1.3,0,0,0,1,.45A1.27,1.27,0,0,0,7,14,1.44,1.44,0,0,0,7.46,13Z"/></g><path class="cls-4" d="M18.4,16.2a.32.32,0,0,1-.32.33.32.32,0,0,1-.32-.33.32.32,0,0,1,.33-.35A.32.32,0,0,1,18.4,16.2Zm-.59,3.4L17.89,17h.37l.08,2.62Z"/><path class="cls-4" d="M19.12,14.89a4.2,4.2,0,0,1,.87-.08,1.5,1.5,0,0,1,1,.27.78.78,0,0,1,.31.65.88.88,0,0,1-.63.81v0a.94.94,0,0,1,.76.92,1,1,0,0,1-.32.74,1.83,1.83,0,0,1-1.27.35,5.6,5.6,0,0,1-.74,0Zm.48,1.51H20c.5,0,.8-.27.8-.63s-.32-.6-.81-.6a2,2,0,0,0-.42,0Zm0,1.77a2.6,2.6,0,0,0,.4,0c.49,0,.95-.18.95-.72s-.43-.71-1-.71h-.4Z"/><path class="cls-4" d="M22.62,15.13a.29.29,0,0,1-.31.3.28.28,0,0,1-.29-.3.29.29,0,0,1,.3-.3A.29.29,0,0,1,22.62,15.13Zm-.54,3.4V15.88h.48v2.66Z"/><path class="cls-4" d="M23.63,17.29a.85.85,0,0,0,.91.92,1.73,1.73,0,0,0,.74-.14l.09.35a2.16,2.16,0,0,1-.89.17,1.24,1.24,0,0,1-1.31-1.34,1.29,1.29,0,0,1,1.25-1.43,1.12,1.12,0,0,1,1.1,1.25,1.18,1.18,0,0,1,0,.23ZM25,16.95a.69.69,0,0,0-.67-.78.79.79,0,0,0-.74.78Z"/><path class="cls-4" d="M26.12,16.6c0-.28,0-.5,0-.72h.43l0,.44h0a1,1,0,0,1,.88-.49c.37,0,.94.22.94,1.13v1.58h-.48V17c0-.43-.16-.78-.61-.78a.71.71,0,0,0-.68.72v1.6h-.48Z"/><path class="cls-4" d="M29.28,15.88l.52,1.49c.09.25.16.47.21.69h0c.06-.22.14-.44.23-.69l.52-1.49h.5l-1,2.66h-.46l-1-2.66Z"/><path class="cls-4" d="M31.95,17.29a.85.85,0,0,0,.91.92,1.73,1.73,0,0,0,.74-.14l.09.35a2.16,2.16,0,0,1-.89.17,1.24,1.24,0,0,1-1.31-1.34,1.28,1.28,0,0,1,1.25-1.43,1.12,1.12,0,0,1,1.1,1.25,1.18,1.18,0,0,1,0,.23Zm1.42-.35a.69.69,0,0,0-.67-.78.79.79,0,0,0-.74.78Z"/><path class="cls-4" d="M34.43,16.6c0-.28,0-.5,0-.72h.43l0,.44h0a1,1,0,0,1,.88-.49c.37,0,.94.22.94,1.13v1.58h-.48V17c0-.43-.16-.78-.61-.78a.71.71,0,0,0-.68.72v1.6h-.48Z"/><path class="cls-4" d="M38,15.13a.29.29,0,0,1-.31.3.28.28,0,0,1-.29-.3.29.29,0,0,1,.3-.3A.29.29,0,0,1,38,15.13Zm-.54,3.4V15.88H38v2.66Z"/><path class="cls-4" d="M41,14.64v3.21c0,.24,0,.5,0,.69h-.43l0-.46h0a1,1,0,0,1-.89.52,1.22,1.22,0,0,1-1.14-1.35,1.27,1.27,0,0,1,1.19-1.42.89.89,0,0,1,.8.4h0V14.64ZM40.57,17a.85.85,0,0,0,0-.2.71.71,0,0,0-.7-.55c-.5,0-.8.44-.8,1s.27,1,.79,1a.73.73,0,0,0,.71-.58.84.84,0,0,0,0-.21Z"/><path class="cls-4" d="M44.26,17.18a1.3,1.3,0,0,1-1.32,1.41,1.27,1.27,0,0,1-1.27-1.37A1.3,1.3,0,0,1,43,15.82,1.26,1.26,0,0,1,44.26,17.18Zm-2.1,0c0,.58.33,1,.8,1s.81-.43.81-1-.23-1-.8-1S42.16,16.71,42.16,17.21Z"/><path class="cls-4" d="M44.8,18a1.36,1.36,0,0,0,.64.19c.35,0,.51-.17.51-.4s-.14-.35-.49-.48-.71-.43-.71-.75a.82.82,0,0,1,.92-.78,1.23,1.23,0,0,1,.65.16l-.12.35a1,1,0,0,0-.54-.16c-.29,0-.44.16-.44.36s.15.32.5.46.7.4.7.8-.37.8-1,.8a1.51,1.51,0,0,1-.75-.19Z"/><path class="cls-4" d="M46.95,18.26a.32.32,0,0,1,.33-.34.31.31,0,0,1,.32.34.32.32,0,1,1-.65,0Zm.14-.78L47,14.84h.53l-.08,2.64Z"/><path class="cls-5" d="M45.8,2.78a20.09,20.09,0,0,0-7.42,1.45l.19.45a18.57,18.57,0,0,1,13.73-.16,17.54,17.54,0,0,1,9.13,8.68,21.87,21.87,0,0,1,2.1,6.19l.49-.07A22.42,22.42,0,0,0,61.86,13a18.26,18.26,0,0,0-9.38-8.91A17.7,17.7,0,0,0,45.8,2.78Z"/><path class="cls-6" d="M100.54,15.2A56.76,56.76,0,0,0,49.7-9a2.17,2.17,0,0,1-1.63-.57,2.17,2.17,0,0,1-.69-1.58v-7.23a3.11,3.11,0,0,1,3.11-3.11H52a2.62,2.62,0,0,0,2.62-2.62h.49A3.11,3.11,0,0,1,52-21H50.49a2.62,2.62,0,0,0-2.62,2.62v7.23A1.65,1.65,0,0,0,48.4-10a1.65,1.65,0,0,0,1.26.44,57.85,57.85,0,0,1,25.8,4,57,57,0,0,1,17,10.77,58.35,58.35,0,0,1,8.46,9.62Z"/></g></svg>