<svg xmlns="http://www.w3.org/2000/svg" viewBox="0 0 64 23.24"><defs><style>.cls-1{fill:#f1f0f0;}.cls-2{font-size:3.28px;font-family:Montserrat-Bold, Montserrat;font-weight:700;}.cls-2,.cls-6,.cls-7,.cls-8{fill:#773c1c;}.cls-3{letter-spacing:0.01em;}.cls-4{letter-spacing:-0.01em;}.cls-5{font-size:1.66px;fill:#363638;font-family:FontAwesome5FreeSolid, Font Awesome 5 Free;}.cls-7{opacity:0.53;}.cls-8{opacity:0.17;}.cls-9{fill:none;stroke:#e0a770;stroke-miterlimit:10;stroke-width:0.5px;}</style></defs><title>login_part-01</title><g id="Capa_2" data-name="Capa 2"><path class="cls-1" d="M0,9.37H23s-.89-3,.61-4,1.73-.66,1.73-.66l13.49.13,1.17.79L40.66,7V9.16l.89.21H64V-23.24H0Z"/></g><g id="Capa_1" data-name="Capa 1"><text class="cls-2" transform="translate(24.86 10.37)">I<tspan class="cls-3" x="1.08" y="0">n</tspan><tspan x="3.36" y="0">g</tspan><tspan class="cls-4" x="5.66" y="0">r</tspan><tspan x="7.05" y="0">esar</tspan></text><text class="cls-5" transform="translate(19.07 13.11)">por favor ingrese para continuar</text><path class="cls-6" d="M26.63,17.57q.12-.46.16-.61a1.52,1.52,0,0,1,.14-.34,1,1,0,0,1,.2-.23,1,1,0,0,1,.48-.23,1.05,1.05,0,0,1,.53,0,1,1,0,0,1,.67.78,1.05,1.05,0,0,1,0,.53,1,1,0,0,1-.3.44,1,1,0,0,1-.26.17,1.52,1.52,0,0,1-.36.09l-.63.07-.63.06a.13.13,0,0,1-.14-.16Zm1.15,0a.43.43,0,1,0-.29-.15A.41.41,0,0,0,27.78,17.61Z"/><path class="cls-7" d="M29.87,17.57Q30,17.12,30,17a1.52,1.52,0,0,1,.14-.34,1,1,0,0,1,.2-.23,1,1,0,0,1,.48-.23,1.05,1.05,0,0,1,.53,0,1,1,0,0,1,.67.78,1.05,1.05,0,0,1,0,.53,1,1,0,0,1-.3.44,1,1,0,0,1-.26.17,1.52,1.52,0,0,1-.36.09l-.63.07-.63.06a.13.13,0,0,1-.14-.16Zm1.15,0a.43.43,0,1,0-.29-.15A.41.41,0,0,0,31,17.61Z"/><path class="cls-8" d="M33,17.57q.12-.46.16-.61a1.52,1.52,0,0,1,.14-.34,1,1,0,0,1,.2-.23,1,1,0,0,1,.48-.23,1.05,1.05,0,0,1,.53,0,1,1,0,0,1,.67.78,1.05,1.05,0,0,1,0,.53,1,1,0,0,1-.3.44,1,1,0,0,1-.26.17,1.52,1.52,0,0,1-.36.09l-.63.07-.63.06a.13.13,0,0,1-.14-.16Zm1.15,0a.43.43,0,1,0-.29-.15A.41.41,0,0,0,34.17,17.61Z"/><path class="cls-9" d="M67,9.37H40.62l.05-2a2.6,2.6,0,0,0-2.6-2.63H25.39a2.6,2.6,0,0,0-2.6,2.77L23,9.37H-4"/></g></svg>